# This file uses centimeters as units for non-parametric coordinates.

mtllib inversed.mtl
g default
v 0.500000 0.500000 -0.500000
v -0.500000 0.500000 -0.500000
v 0.500000 -0.500000 -0.500000
v -0.500000 -0.500000 -0.500000
v 0.500000 -0.500000 0.500000
v -0.500000 -0.500000 0.500000
v 0.500000 0.500000 0.500000
v -0.500000 0.500000 0.500000
vt 0.858330 0.356252
vt 0.608330 0.606252
vt 0.608330 0.356252
vt 0.858330 0.606252
vt 0.608330 0.606252
vt 0.608330 0.356252
vt 0.310538 0.619929
vt 0.060538 0.619929
vt 0.060538 0.369929
vt 0.310538 0.369929
vt 0.060538 0.619929
vt 0.060538 0.369929
vt 0.858330 0.606252
vt 0.608330 0.356252
vt 0.858330 0.356252
vt 0.310538 0.369929
vt 0.060538 0.619929
vt 0.060538 0.369929
vt 0.858330 0.606252
vt 0.608330 0.606252
vt 0.858330 0.356252
vt 0.310538 0.619929
vt 0.310538 0.619929
vt 0.310538 0.369929
vn 0.000000 0.000000 1.000000
vn 0.000000 0.000000 1.000000
vn 0.000000 0.000000 1.000000
vn 0.000000 1.000000 0.000000
vn 0.000000 1.000000 0.000000
vn 0.000000 1.000000 0.000000
vn 0.000000 0.000000 -1.000000
vn 0.000000 0.000000 -1.000000
vn 0.000000 0.000000 -1.000000
vn 0.000000 -1.000000 0.000000
vn 0.000000 -1.000000 0.000000
vn 0.000000 -1.000000 0.000000
vn 1.000000 0.000000 0.000000
vn 1.000000 0.000000 0.000000
vn 1.000000 0.000000 0.000000
vn -1.000000 0.000000 0.000000
vn -1.000000 0.000000 0.000000
vn -1.000000 0.000000 0.000000
vn 0.000000 0.000000 1.000000
vn 0.000000 0.000000 1.000000
vn 0.000000 0.000000 1.000000
vn 1.000000 0.000000 0.000000
vn 1.000000 0.000000 0.000000
vn 1.000000 0.000000 0.000000
vn 0.000000 1.000000 0.000000
vn 0.000000 1.000000 0.000000
vn 0.000000 1.000000 0.000000
vn -1.000000 0.000000 0.000000
vn -1.000000 0.000000 0.000000
vn -1.000000 0.000000 0.000000
vn 0.000000 -1.000000 0.000000
vn 0.000000 -1.000000 0.000000
vn 0.000000 -1.000000 0.000000
vn 0.000000 0.000000 -1.000000
vn 0.000000 0.000000 -1.000000
vn 0.000000 0.000000 -1.000000
s off
g cube:pCube1
usemtl initialShadingGroup
f 3/1/1 2/2/2 4/3/3
f 3/4/4 4/5/5 6/6/6
f 5/7/7 6/8/8 8/9/9
f 1/10/10 8/11/11 2/12/12
f 2/13/13 6/14/14 4/15/15
f 5/16/16 1/17/17 3/18/18
f 1/19/19 2/2/20 3/1/21
f 2/13/22 8/20/23 6/14/24
f 3/4/25 6/6/26 5/21/27
f 7/22/28 1/17/29 5/16/30
f 7/23/31 8/11/32 1/10/33
f 5/7/34 8/9/35 7/24/36